# Object Export From Tinkercad Server 2015

mtllib obj.mtl

o obj_0
v 64 		14 		0
v 64 		14 		5
v 64 		-31 		5
v 64 		-31 		0
v -26 		14 		5
v -26 		14 		0
v -26 		-31 		0
v -26 		-31 		5
v 27.1595 		-13.1329 		5
v 31.235 		-14.5 		5
v 29.9263 		-17.2334 		0
v 27.1595 		-15.8671 		5
v 38.0749 		-14.5 		0
v 26.5059 		-18.9248 		5
v 28.6195 		-23.347 		0
v 29.9263 		-11.7666 		0
v 28.6195 		-5.653 		0
v 22.2767 		-10.0769 		0
v 13.3205 		-9.0324 		0
v 26.5059 		-10.0752 		5
v 23.3335 		-12.2878 		5
v 18.8541 		-11.7654 		5
v 20.969 		-14.5 		5
v 18.8541 		-17.2346 		5
v 23.3335 		-16.7122 		5
v 17.549 		-14.5 		0
v 22.2767 		-18.9231 		0
v 13.3205 		-19.9676 		0
# 28 vertices

g group_0_16448250

usemtl color_16448250
s 0

f 3 	1 	2
f 1 	3 	4
f 7 	5 	6
f 5 	7 	8
f 12 	10 	11
f 13 	11 	10
f 15 	27 	14
f 15 	14 	11
f 12 	11 	14
f 25 	24 	14
f 12 	14 	10
f 3 	10 	14
f 8 	3 	14
f 17 	1 	16
f 13 	16 	1
f 18 	19 	17
f 1 	17 	6
f 6 	17 	19
f 10 	2 	9
f 20 	9 	2
f 10 	3 	2
f 2 	5 	20
f 5 	22 	20
f 21 	20 	22
f 22 	5 	8
f 23 	22 	24
f 24 	22 	8
f 8 	14 	24
f 4 	3 	7
f 8 	7 	3
f 5 	2 	6
f 1 	6 	2
f 9 	20 	16
f 9 	16 	10
f 13 	10 	16
f 18 	21 	22
f 17 	16 	20
f 17 	20 	18
f 21 	18 	20
f 23 	24 	26
f 18 	22 	19
f 19 	22 	26
f 23 	26 	22
f 25 	14 	27
f 26 	24 	28
f 28 	24 	27
f 25 	27 	24
f 26 	28 	19
f 28 	7 	19
f 19 	7 	6
f 7 	28 	15
f 27 	15 	28
f 4 	7 	15
f 11 	13 	15
f 4 	15 	13
f 4 	13 	1
# 56 faces

 #end of obj_0

