# Object Export From Tinkercad Server 2015

mtllib obj.mtl

o obj_0
v -2.6099 		-5.548 		9.6283
v -1.0688 		-5.0259 		10.5094
v 3.1754 		-5.0205 		8.9608
v -0.6358 		-5.5455 		8.908
v -1.7538 		-5.0378 		13.9621
v -2.9285 		-5.5535 		11.2342
v 25 		-5.608 		26.954
v 25 		-5.083 		27
v -26 		-5.525 		3
v -26 		-5 		3.046
v -7.5131 		-5.0205 		8.9608
v -9.7236 		-5.0097 		5.858
v -9.7068 		-5.0312 		12.0546
v -5.0502 		-5.0292 		11.465
v -26 		-5.083 		27
v 25 		-5 		3.046
v -26 		-5.608 		26.954
v 25 		-5.525 		3
v -1.0646 		-5.0151 		7.41
v -1.7433 		-5.0031 		3.9363
v -5.0528 		-5.0118 		6.4507
v -2.6079 		-5.543 		8.1866
v -4.4629 		-5.5414 		7.7404
v -2.9236 		-5.5374 		6.5709
v -5.6073 		-5.5455 		8.908
v -6.6355 		-5.5405 		7.4647
v -4.4617 		-5.5495 		10.0728
v -6.6277 		-5.5505 		10.347
# 28 vertices

g group_0_16448250

usemtl color_16448250
s 0

f 3 	4 	2
f 1 	2 	4
f 5 	6 	14
f 2 	1 	6
f 2 	6 	5
f 15 	7 	8
f 16 	18 	10
f 10 	18 	9
f 15 	13 	10
f 11 	12 	13
f 12 	10 	13
f 14 	13 	5
f 15 	5 	13
f 3 	2 	8
f 5 	8 	2
f 15 	8 	5
f 16 	3 	8
f 15 	17 	7
f 7 	17 	6
f 1 	4 	6
f 7 	6 	4
f 4 	18 	7
f 19 	3 	20
f 16 	20 	3
f 10 	12 	20
f 10 	20 	16
f 21 	20 	12
f 18 	16 	7
f 8 	7 	16
f 9 	17 	10
f 15 	10 	17
f 18 	4 	24
f 19 	22 	4
f 19 	4 	3
f 22 	19 	24
f 20 	24 	19
f 21 	23 	24
f 21 	24 	20
f 23 	21 	26
f 12 	26 	21
f 26 	12 	11
f 26 	11 	25
f 27 	14 	6
f 25 	11 	28
f 13 	28 	11
f 14 	27 	28
f 14 	28 	13
f 22 	24 	4
f 23 	26 	24
f 26 	9 	24
f 25 	28 	26
f 28 	9 	26
f 18 	24 	9
f 27 	6 	28
f 6 	17 	28
f 9 	28 	17
# 56 faces

 #end of obj_0

