# Object Export From Tinkercad Server 2015

mtllib obj.mtl

o obj_0
v 25 		-5.525 		3
v 25 		-5 		3.046
v 25 		-5.083 		27
v 25 		-5.608 		26.954
v -26 		-5.525 		3
v -6.4552 		-5.5291 		4.1846
v -5.707 		-5.5403 		7.4076
v -5.9397 		-5.5408 		7.553
v -6.6355 		-5.5405 		7.4647
v -6.3777 		-5.5417 		7.8266
v -8.5082 		-5.5463 		9.1576
v -6.221 		-5.5485 		9.7735
v -6.6277 		-5.5505 		10.347
v -4.9024 		-5.5497 		10.1285
v -4.5611 		-5.55 		10.2204
v -2.9579 		-5.0082 		4.8652
v -2.959 		-5.008 		4.813
v -26 		-5.608 		26.954
v -2.758 		-5.5606 		13.2843
v -6.0545 		-5.0069 		3.0454
v -1.0825 		-5.5519 		10.7605
v 2.7601 		-5.5524 		10.9136
v -0.817 		-5.0042 		4.2513
v 2.0509 		-5.0191 		8.5495
v -1.6419 		-5.0056 		4.4676
v 3.1754 		-5.0205 		8.9608
v 1.6501 		-5.0178 		8.1794
v 2.6886 		-5.0211 		9.1384
v 6.2274 		-5.0324 		12.4064
v -2.8528 		-5.0078 		4.7852
v -11.973 		-5.032 		9.553
v 2.6309 		-5.0011 		3.3554
v -1.4558 		-5.0082 		5.4081
v -5.4243 		-5.0298 		11.6476
v -8.5743 		-5.0304 		10.4806
v -5.3174 		-5.0293 		11.4989
v -2.7165 		-5.0457 		16.2489
v -0.0007 		-5.0316 		12.1583
v -5.4981 		-5.0295 		11.5213
v -4.8066 		-5.0147 		6.2752
v -7.6038 		-5.0258 		9.1125
v -7.4452 		-5.0087 		3.0452
v -5.0487 		-5.0155 		6.4596
v -5.0528 		-5.0118 		6.4507
v -8.5808 		-5.0222 		7.4255
v -1.7433 		-5.0031 		3.9363
v -7.5131 		-5.0205 		8.9608
v -9.7236 		-5.0097 		5.858
v -7.6102 		-5.0175 		6.1419
v -9.7068 		-5.0312 		12.0546
v -26 		-5 		3.046
v -26 		-5.083 		27
v -0.064 		-5.5434 		8.3056
v -7.4959 		-5.0252 		8.9603
v 0.5412 		-5.5331 		5.3294
v 1.7765 		-5.525 		3
v -2.9078 		-5.5362 		6.2255
v 1.8154 		-5.2078 		8.9419
v -3.319 		-5 		3.046
v -8.3199 		-5.0097 		3.0451
v -2.4746 		-5.3341 		5.5686
v -6.1198 		-5.4186 		7.2499
v -7.4329 		-5.2972 		3.02
v -4.9328 		-5.3702 		10.5869
# 64 vertices

g group_0_16448250

usemtl color_16448250
s 0

f 3 	4 	2
f 1 	2 	4
f 7 	8 	6
f 8 	9 	6
f 9 	5 	6
f 10 	11 	9
f 5 	9 	11
f 18 	5 	11
f 12 	13 	11
f 13 	18 	11
f 15 	19 	14
f 13 	14 	19
f 4 	18 	19
f 19 	18 	13
f 21 	22 	19
f 4 	19 	22
f 22 	1 	4
f 2 	32 	26
f 28 	29 	26
f 27 	24 	32
f 24 	26 	32
f 26 	29 	2
f 33 	25 	23
f 17 	30 	16
f 12 	11 	35
f 36 	50 	34
f 33 	46 	25
f 3 	2 	29
f 38 	37 	29
f 3 	29 	37
f 52 	3 	37
f 17 	16 	20
f 40 	20 	16
f 20 	40 	42
f 34 	50 	37
f 52 	37 	50
f 31 	41 	35
f 31 	11 	45
f 2 	59 	32
f 44 	43 	40
f 44 	40 	16
f 44 	16 	30
f 44 	30 	46
f 19 	37 	38
f 19 	38 	21
f 43 	44 	49
f 48 	49 	44
f 50 	13 	35
f 18 	51 	5
f 51 	18 	52
f 9 	48 	45
f 41 	45 	54
f 31 	45 	41
f 22 	53 	1
f 55 	1 	53
f 59 	46 	32
f 57 	56 	55
f 1 	55 	56
f 62 	49 	9
f 33 	23 	46
f 23 	32 	46
f 56 	57 	6
f 56 	6 	5
f 61 	55 	25
f 23 	25 	55
f 58 	26 	24
f 57 	61 	17
f 26 	58 	28
f 46 	61 	25
f 17 	6 	57
f 59 	44 	46
f 46 	30 	61
f 44 	59 	48
f 51 	48 	59
f 57 	55 	61
f 23 	55 	32
f 47 	48 	50
f 50 	48 	51
f 30 	17 	61
f 51 	52 	50
f 49 	42 	43
f 40 	43 	42
f 42 	49 	60
f 62 	8 	7
f 4 	52 	18
f 52 	4 	3
f 54 	47 	41
f 17 	20 	6
f 20 	63 	6
f 7 	6 	62
f 63 	49 	6
f 47 	54 	45
f 47 	45 	48
f 47 	50 	35
f 41 	47 	35
f 34 	19 	64
f 5 	63 	56
f 34 	39 	36
f 10 	45 	11
f 50 	39 	13
f 36 	39 	50
f 64 	13 	39
f 8 	62 	9
f 48 	9 	49
f 10 	9 	45
f 29 	22 	38
f 21 	38 	22
f 31 	35 	11
f 14 	64 	15
f 15 	64 	19
f 34 	37 	19
f 12 	35 	13
f 14 	13 	64
f 20 	59 	63
f 51 	60 	5
f 62 	6 	49
f 60 	49 	63
f 1 	56 	2
f 63 	59 	56
f 64 	39 	34
f 59 	2 	56
f 42 	51 	20
f 60 	51 	42
f 63 	5 	60
f 59 	20 	51
f 53 	27 	55
f 32 	55 	27
f 27 	53 	58
f 27 	58 	24
f 53 	22 	58
f 28 	58 	22
f 28 	22 	29
# 132 faces

 #end of obj_0

